<svg width="279" height="279" fill="none" xmlns="http://www.w3.org/2000/svg"><path d="M274.575 142.383L152.469 5.798A17.346 17.346 0 00139.5 0a17.346 17.346 0 00-12.969 5.798L4.425 142.383c-6.436 7.198-5.776 18.255 1.466 24.641l122.106 107.633A17.341 17.341 0 00139.5 279c4.109 0 8.217-1.449 11.503-4.343l122.106-107.638c7.242-6.381 7.896-17.443 1.466-24.636zM139.5 162.359l-41.338-27.556L139.5 38.352l41.338 96.451-41.338 27.556zm-58.46-31.736l-55.053 13.765 94.424-105.633-39.37 91.868zm116.919 0l-39.37-91.868 94.527 105.655-55.157-13.787zm-180.57 23.383l.005.022-.016-.011.01-.011zm9.28 8.19l59.036-14.762 45.098 30.074v76.409L26.668 162.196zm121.528 91.683v-76.371l45.098-30.074 58.96 14.746-104.058 91.699z" fill="#666"/></svg>