<svg width="25" height="27" fill="none" xmlns="http://www.w3.org/2000/svg"><path d="M6.863 27a6.79 6.79 0 01-4.816-1.992 6.819 6.819 0 010-9.632l13.82-13.82a5.326 5.326 0 017.523 0 5.326 5.326 0 010 7.523l-11.74 11.74a3.832 3.832 0 01-5.414 0 3.832 3.832 0 010-5.414l8.981-8.98a.633.633 0 01.895 0l.299.298a.633.633 0 010 .895l-8.981 8.98a2.142 2.142 0 000 3.027 2.142 2.142 0 003.026 0l11.74-11.74a3.636 3.636 0 000-5.136 3.636 3.636 0 00-5.136 0L3.24 16.569a5.13 5.13 0 000 7.246 5.13 5.13 0 007.246 0l11.482-11.483a.633.633 0 01.895 0l.299.299a.633.633 0 010 .895L11.68 25.008A6.79 6.79 0 016.863 27z" fill="#fff"/></svg>