<svg width="40" height="40" fill="none" xmlns="http://www.w3.org/2000/svg"><path d="M22.5 15h-5v-5a1.25 1.25 0 10-2.5 0v5h-5a1.25 1.25 0 100 2.5h5v5a1.25 1.25 0 102.5 0v-5h5a1.25 1.25 0 100-2.5zm17.134 22.866L28.582 26.815A16.174 16.174 0 0032.5 16.25C32.5 7.275 25.225 0 16.25 0S0 7.275 0 16.25 7.275 32.5 16.25 32.5c4.037 0 7.723-1.481 10.564-3.918l11.052 11.052a1.246 1.246 0 001.768 0 1.25 1.25 0 000-1.768zM16.25 30C8.668 30 2.5 23.832 2.5 16.25S8.668 2.5 16.25 2.5 30 8.668 30 16.25 23.832 30 16.25 30z" fill="#BABABA"/></svg>