<?xml version="1.0" standalone="no"?>
<!DOCTYPE svg PUBLIC "-//W3C//DTD SVG 20010904//EN"
 "http://www.w3.org/TR/2001/REC-SVG-20010904/DTD/svg10.dtd">
<svg version="1.0" xmlns="http://www.w3.org/2000/svg"
 width="474.000000pt" height="474.000000pt" viewBox="0 0 474.000000 474.000000"
 preserveAspectRatio="xMidYMid meet">

<g transform="translate(0.000000,474.000000) scale(0.100000,-0.100000)"
fill="#000000" stroke="none">
<path d="M2185 4693 c-410 -35 -821 -186 -1152 -423 -128 -91 -181 -137 -303
-259 -130 -131 -155 -160 -235 -271 -215 -298 -350 -619 -417 -995 -30 -162
-32 -574 -5 -730 86 -490 293 -910 617 -1249 421 -440 968 -691 1573 -723 122
-6 127 -5 127 14 0 18 -8 20 -102 22 -293 5 -638 95 -924 239 -237 120 -402
240 -594 432 -365 364 -576 784 -661 1315 -21 125 -18 525 4 654 91 537 317
972 689 1326 400 380 877 591 1438 635 80 6 147 13 149 16 5 4 -141 3 -204 -3z"/>
<path d="M2400 4668 c0 -18 47 -28 132 -28 150 0 452 -63 643 -135 676 -252
1203 -825 1394 -1514 63 -228 76 -328 75 -616 0 -265 -6 -328 -50 -515 -159
-664 -610 -1226 -1219 -1520 -269 -129 -511 -195 -822 -221 -121 -10 -153 -16
-153 -28 0 -32 345 7 566 64 704 180 1289 697 1557 1375 220 556 218 1164 -6
1715 -121 298 -298 558 -534 786 -407 392 -903 609 -1470 645 -97 6 -113 4
-113 -8z"/>
<path d="M2160 4634 c-14 -2 -59 -9 -100 -15 -626 -89 -1209 -463 -1558 -997
-331 -508 -447 -1130 -321 -1721 51 -240 192 -575 325 -771 301 -445 737 -769
1234 -918 192 -58 395 -92 551 -92 l96 0 6 572 c9 735 9 2606 0 3361 l-6 587
-101 -1 c-56 -1 -112 -3 -126 -5z m20 -1709 l0 -195 -270 0 -270 0 0 -640 0
-640 -292 2 -293 3 -3 638 -2 637 -265 0 -265 0 0 195 0 195 830 0 830 0 0
-195z"/>
<path d="M3110 2295 l0 -835 290 0 290 0 0 835 0 835 -290 0 -290 0 0 -835z"/>
</g>
</svg>
